# xmcd
#
# Track frame offsets:
#	150
#	14134
#	38395
#	55559
#	70687
#	90555
#	108374
#	134117
#	151372
#	174820
#	194661
#	214154
#	231032
#	245347
#	263395
#	282110
#
# Disc length: 3986 seconds
#
# Revision: 0
# Processed by: cddbd v1.5.2PL0 Copyright (c) Steve Scherf et al.
# Submitted via: EasyCDDAExtractor 16.0.9.1
#
DISCID=d20f9010
DTITLE=Various Artist - XL Top Pop Vol.1
DYEAR=1999
DGENRE=Dance
TTITLE0=Lee R. - Tarzan Boy (Radio)
TTITLE1=V-Boys - Boom Boom Boom (Radio Mix)
TTITLE2=Banditos Bonitos - La Collegiala (Radio Mix)
TTITLE3=Alcatraz - Hearts Of Stone (Radio Justice MIx)
TTITLE4=TN'T - I Like Chopin  (Single Edit)
TTITLE5=696 - Paradoxx (Radio Mix)
TTITLE6=Elements - How Can I Let You (Gas Mix)
TTITLE7=Heart and Soul - One More Night (Rythm and Volce Mix)
TTITLE8=Odme - Enolay Gay (Enola Edit)
TTITLE9=Q and Ueen - Another One Bites The Dust (Video Mix)
TTITLE10=Skau Del Sol - Mallorca Tequilla (Radio Edit)
TTITLE11=Cherip - Believe (Video Mix)
TTITLE12=DJ Silencer - Fantasy (Radio Mix)
TTITLE13=Terry Bones - Dreaming (DJ Kalpa Airplay Mix)
TTITLE14=Elite - My Side Of The Bed (Radio Mix)
TTITLE15=Opus - Live Is Life '99
EXTD=
EXTT0=
EXTT1=
EXTT2=
EXTT3=
EXTT4=
EXTT5=
EXTT6=
EXTT7=
EXTT8=
EXTT9=
EXTT10=
EXTT11=
EXTT12=
EXTT13=
EXTT14=
EXTT15=
PLAYORDER=
